Coordinates
version=1
nRows=12
nColumns=38
inDegrees=yes

Units are S.I. units (second, meters, Newtons, ...)
Angles are in degrees.

endheader
time	pelvis_tilt	pelvis_list	pelvis_rotation	pelvis_tx	pelvis_ty	pelvis_tz	hip_flexion_r	hip_adduction_r	hip_rotation_r	knee_angle_r	ankle_angle_r	subtalar_angle_r	mtp_angle_r	hip_flexion_l	hip_adduction_l	hip_rotation_l	knee_angle_l	ankle_angle_l	subtalar_angle_l	mtp_angle_l	lumbar_extension	lumbar_bending	lumbar_rotation	arm_flex_r	arm_add_r	arm_rot_r	elbow_flex_r	pro_sup_r	wrist_flex_r	wrist_dev_r	arm_flex_l	arm_add_l	arm_rot_l	elbow_flex_l	pro_sup_l	wrist_flex_l	wrist_dev_l
      2.05000000	      1.67227540	     -1.99359850	      4.60916544	      0.68743905	      0.91897277	      0.26264504	     -9.82357555	      7.87263233	     -7.01466783	    -10.56460357	     11.63390019	      1.59844259	      2.98514956	     26.31164458	      1.23159241	      4.00348899	    -26.99803765	      2.20875496	     -8.86966460	      9.00176993	     -8.11750956	      4.27677332	      1.56561661	     -1.97037671	    -23.31660479	      2.70122986	     50.11404377	     86.51662706	      0.00000000	      0.00000000	     -3.29608070	    -14.67978958	     23.84955047	     16.41128116	     86.51662706	      0.00000000	      0.00000000
      2.06000000	      1.73169604	     -2.07080601	      4.32429038	      0.70070911	      0.91699176	      0.26288260	    -10.91360627	      7.95354805	     -6.98106263	    -10.39722574	     12.00427355	      2.07441609	      3.21283575	     26.36659382	      1.06969991	      3.77634874	    -23.67898707	      2.49812746	     -8.61599478	      8.83745865	     -8.22810077	      4.32823598	      1.90702682	     -1.57957384	    -23.61067729	      2.62006164	     50.90010145	     86.51662706	      0.00000000	      0.00000000	     -3.54954869	    -14.50834917	     23.82335357	     15.80069559	     86.51662706	      0.00000000	      0.00000000
      2.07000000	      1.75674681	     -2.18333042	      4.02975479	      0.71410016	      0.91495650	      0.26300765	    -11.91497835	      8.04205301	     -6.87155608	    -10.34811714	     12.31871543	      2.47618053	      3.45935989	     26.43836759	      0.87112495	      3.47595108	    -20.59164538	      2.80551612	     -8.01801531	      8.74472253	     -8.28794053	      4.41701399	      2.23672240	     -1.20088001	    -23.88924005	      2.57347732	     51.56471725	     86.51662706	      0.00000000	      0.00000000	     -3.77809160	    -14.30501647	     23.87515524	     15.11858864	     86.51662706	      0.00000000	      0.00000000
      2.08000000	      1.74604786	     -2.32363310	      3.73005010	      0.72760556	      0.91287935	      0.26304498	    -12.82156990	      8.13227078	     -6.69647295	    -10.42526045	     12.56851063	      2.81793663	      3.73076292	     26.54620787	      0.65668949	      3.08836569	    -17.82896147	      3.12083354	     -7.06509820	      8.71309521	     -8.29542057	      4.53561528	      2.55280526	     -0.84671066	    -24.14965143	      2.55515912	     52.11306731	     86.51662706	      0.00000000	      0.00000000	     -3.97588565	    -14.07321224	     24.01658918	     14.36675870	     86.51662706	      0.00000000	      0.00000000
      2.09000000	      1.70117519	     -2.47783656	      3.42822571	      0.74121617	      0.91076062	      0.26302768	    -13.62792550	      8.21201775	     -6.47721066	    -10.64038521	     12.74788222	      3.12128343	      4.04349401	     26.70130354	      0.45158631	      2.62219659	    -15.47829019	      3.43095505	     -5.78053280	      8.73292196	     -8.25182673	      4.66848211	      2.85399734	     -0.53028607	    -24.38816199	      2.55847096	     52.55118262	     86.51662706	      0.00000000	      0.00000000	     -4.13925958	    -13.81809835	     24.25897996	     13.54970100	     86.51662706	      0.00000000	      0.00000000
      2.10000000	      1.62714124	     -2.62667657	      3.12471242	      0.75494485	      0.90863162	      0.26294594	    -14.33114163	      8.26149828	     -6.24123430	    -11.00686085	     12.85385823	      3.41136435	      4.42540574	     26.90467441	      0.28127239	      2.11185844	    -13.61293849	      3.71489400	     -4.22578117	      8.79360640	     -8.15962646	      4.79345806	      3.13993705	     -0.26497892	    -24.59987997	      2.57699845	     52.88516587	     86.51662706	      0.00000000	      0.00000000	     -4.26833548	    -13.54627677	     24.61237919	     12.67477050	     86.51662706	      0.00000000	      0.00000000
      2.11000000	      1.53210898	     -2.74774435	      2.81785912	      0.76883318	      0.90655102	      0.26277677	    -14.93208265	      8.25538721	     -6.01612237	    -11.53585350	     12.88533956	      3.71219189	      4.91508337	     27.14651563	      0.16918575	      1.61317557	    -12.28352535	      3.93840608	     -2.49948726	      8.88158801	     -8.02091814	      4.88515502	      3.41046156	     -0.06334604	    -24.77899452	      2.60496499	     53.12031548	     86.51662706	      0.00000000	      0.00000000	     -4.36790896	    -13.26539927	     25.08444219	     11.75220152	     86.51662706	      0.00000000	      0.00000000
      2.12000000	      1.42517800	     -2.81872524	      2.50647498	      0.78293345	      0.90458629	      0.26253205	    -15.43486840	      8.16805669	     -5.82434810	    -12.23236075	     12.84105000	      4.04178879	      5.55924009	     27.40688563	      0.13619817	      1.19162124	    -11.51105670	      4.05114467	     -0.73062506	      8.97901793	     -7.83657752	      4.91913784	      3.66387806	      0.06423665	    -24.91920456	      2.63741977	     53.26026508	     86.51662706	      0.00000000	      0.00000000	     -4.44705985	    -12.98377778	     25.67924905	     10.79493969	     86.51662706	      0.00000000	      0.00000000
      2.13000000	      1.31283980	     -2.82117468	      2.19312859	      0.79729092	      0.90279139	      0.26224986	    -15.84517626	      7.97997818	     -5.68015069	    -13.09333328	     12.71606727	      4.40799458	      6.40811599	     27.65893512	      0.20101053	      0.90672415	    -11.28355999	      3.98924626	      0.93384659	      9.06393136	     -7.60648980	      4.87560430	      3.89467150	      0.11116977	    -25.01416592	      2.67017872	     53.30625362	     86.51662706	      0.00000000	      0.00000000	     -4.51735650	    -12.70999501	     26.39620301	      9.81827213	     86.51662706	      0.00000000	      0.00000000
      2.14000000	      1.19659119	     -2.74392775	      1.88658677	      0.81193164	      0.90117200	      0.26195149	    -16.16861390	      7.68236561	     -5.58911791	    -14.10933898	     12.49701055	      4.80583307	      7.50909411	     27.87599124	      0.38055001	      0.79791168	    -11.55756189	      3.68498330	      2.34535609	      9.11228556	     -7.33089490	      4.74125567	      4.09156043	      0.07603722	    -25.05772044	      2.69961131	     53.25664903	     86.51662706	      0.00000000	      0.00000000	     -4.59002736	    -12.45250159	     27.22914626	      8.83930084	     86.51662706	      0.00000000	      0.00000000
      2.15000000	      1.07423115	     -2.58422001	      1.60249331	      0.82685067	      0.89966033	      0.26163488	    -16.40975717	      7.27787083	     -5.55012902	    -15.26957742	     12.15663392	      5.21714811	      8.89908184	     28.04186197	      0.68909578	      0.87658870	    -12.26470535	      3.08295096	      3.37174915	      9.10164932	     -7.01248386	      4.50865363	      4.23702655	     -0.03669285	    -25.04383927	      2.72243168	     53.10686037	     86.51662706	      0.00000000	      0.00000000	     -4.67285610	    -12.21921471	     28.16579801	      7.87634984	     86.51662706	      0.00000000	      0.00000000
      2.16000000	      0.94522335	     -2.34450585	      1.36196908	      0.84202119	      0.89813541	      0.26129961	    -16.57106704	      6.77724471	     -5.55849587	    -16.56829446	     11.64940975	      5.61274847	     10.59656285	     28.16038907	      1.13507818	      1.12686270	    -13.32261466	      2.15949323	      3.91430730	      9.01572161	     -6.65854844	      4.17361396	      4.30918792	     -0.21709647	    -24.96647672	      2.73565214	     52.84976569	     86.51662706	      0.00000000	      0.00000000	     -4.76775773	    -12.01714499	     29.18758134	      6.94837164	     86.51662706	      0.00000000	      0.00000000
